<svg width="196" height="40" viewBox="0 0 196 40" fill="none" xmlns="http://www.w3.org/2000/svg">
<path d="M77.32 16.288C76.936 15.584 76.408 15.048 75.736 14.68C75.064 14.312 74.28 14.128 73.384 14.128C72.392 14.128 71.512 14.352 70.744 14.8C69.976 15.248 69.376 15.888 68.944 16.72C68.512 17.552 68.296 18.512 68.296 19.6C68.296 20.72 68.512 21.696 68.944 22.528C69.392 23.36 70.008 24 70.792 24.448C71.576 24.896 72.488 25.12 73.528 25.12C74.808 25.12 75.856 24.784 76.672 24.112C77.488 23.424 78.024 22.472 78.28 21.256H72.52V18.688H81.592V21.616C81.368 22.784 80.888 23.864 80.152 24.856C79.416 25.848 78.464 26.648 77.296 27.256C76.144 27.848 74.848 28.144 73.408 28.144C71.792 28.144 70.328 27.784 69.016 27.064C67.72 26.328 66.696 25.312 65.944 24.016C65.208 22.72 64.84 21.248 64.84 19.6C64.84 17.952 65.208 16.48 65.944 15.184C66.696 13.872 67.72 12.856 69.016 12.136C70.328 11.4 71.784 11.032 73.384 11.032C75.272 11.032 76.912 11.496 78.304 12.424C79.696 13.336 80.656 14.624 81.184 16.288H77.32ZM96.2219 16.288C95.8379 15.584 95.3099 15.048 94.6379 14.68C93.9659 14.312 93.1819 14.128 92.2859 14.128C91.2939 14.128 90.4139 14.352 89.6459 14.8C88.8779 15.248 88.2779 15.888 87.8459 16.72C87.4139 17.552 87.1979 18.512 87.1979 19.6C87.1979 20.72 87.4139 21.696 87.8459 22.528C88.2939 23.36 88.9099 24 89.6939 24.448C90.4779 24.896 91.3899 25.12 92.4299 25.12C93.7099 25.12 94.7579 24.784 95.5739 24.112C96.3899 23.424 96.9259 22.472 97.1819 21.256H91.4219V18.688H100.494V21.616C100.27 22.784 99.7899 23.864 99.0539 24.856C98.3179 25.848 97.3659 26.648 96.1979 27.256C95.0459 27.848 93.7499 28.144 92.3099 28.144C90.6939 28.144 89.2299 27.784 87.9179 27.064C86.6219 26.328 85.5979 25.312 84.8459 24.016C84.1099 22.72 83.7419 21.248 83.7419 19.6C83.7419 17.952 84.1099 16.48 84.8459 15.184C85.5979 13.872 86.6219 12.856 87.9179 12.136C89.2299 11.4 90.6859 11.032 92.2859 11.032C94.1739 11.032 95.8139 11.496 97.2059 12.424C98.5979 13.336 99.5579 14.624 100.086 16.288H96.2219ZM126.17 14.512C127.802 14.512 129.114 15.016 130.107 16.024C131.114 17.016 131.618 18.408 131.618 20.2V28H128.258V20.656C128.258 19.616 127.994 18.824 127.466 18.28C126.938 17.72 126.218 17.44 125.306 17.44C124.394 17.44 123.666 17.72 123.122 18.28C122.594 18.824 122.33 19.616 122.33 20.656V28H118.97V20.656C118.97 19.616 118.706 18.824 118.178 18.28C117.65 17.72 116.93 17.44 116.018 17.44C115.09 17.44 114.354 17.72 113.81 18.28C113.282 18.824 113.018 19.616 113.018 20.656V28H109.658V14.704H113.018V16.312C113.45 15.752 114.002 15.312 114.674 14.992C115.362 14.672 116.114 14.512 116.93 14.512C117.97 14.512 118.898 14.736 119.714 15.184C120.53 15.616 121.162 16.24 121.61 17.056C122.042 16.288 122.666 15.672 123.482 15.208C124.314 14.744 125.21 14.512 126.17 14.512ZM141.191 28.216C139.911 28.216 138.759 27.936 137.735 27.376C136.711 26.8 135.903 25.992 135.311 24.952C134.735 23.912 134.447 22.712 134.447 21.352C134.447 19.992 134.743 18.792 135.335 17.752C135.943 16.712 136.767 15.912 137.807 15.352C138.847 14.776 140.007 14.488 141.287 14.488C142.567 14.488 143.727 14.776 144.767 15.352C145.807 15.912 146.623 16.712 147.215 17.752C147.823 18.792 148.127 19.992 148.127 21.352C148.127 22.712 147.815 23.912 147.191 24.952C146.583 25.992 145.751 26.8 144.695 27.376C143.655 27.936 142.487 28.216 141.191 28.216ZM141.191 25.288C141.799 25.288 142.367 25.144 142.895 24.856C143.439 24.552 143.871 24.104 144.191 23.512C144.511 22.92 144.671 22.2 144.671 21.352C144.671 20.088 144.335 19.12 143.663 18.448C143.007 17.76 142.199 17.416 141.239 17.416C140.279 17.416 139.471 17.76 138.815 18.448C138.175 19.12 137.855 20.088 137.855 21.352C137.855 22.616 138.167 23.592 138.791 24.28C139.431 24.952 140.231 25.288 141.191 25.288ZM158.44 14.512C160.024 14.512 161.304 15.016 162.28 16.024C163.256 17.016 163.744 18.408 163.744 20.2V28H160.384V20.656C160.384 19.6 160.12 18.792 159.592 18.232C159.064 17.656 158.344 17.368 157.432 17.368C156.504 17.368 155.768 17.656 155.224 18.232C154.696 18.792 154.432 19.6 154.432 20.656V28H151.072V14.704H154.432V16.36C154.88 15.784 155.448 15.336 156.136 15.016C156.84 14.68 157.608 14.512 158.44 14.512ZM179.779 21.064C179.779 21.544 179.747 21.976 179.683 22.36H169.963C170.043 23.32 170.379 24.072 170.971 24.616C171.563 25.16 172.291 25.432 173.155 25.432C174.403 25.432 175.291 24.896 175.819 23.824H179.443C179.059 25.104 178.323 26.16 177.235 26.992C176.147 27.808 174.811 28.216 173.227 28.216C171.947 28.216 170.795 27.936 169.771 27.376C168.763 26.8 167.971 25.992 167.395 24.952C166.835 23.912 166.555 22.712 166.555 21.352C166.555 19.976 166.835 18.768 167.395 17.728C167.955 16.688 168.739 15.888 169.747 15.328C170.755 14.768 171.915 14.488 173.227 14.488C174.491 14.488 175.619 14.76 176.611 15.304C177.619 15.848 178.395 16.624 178.939 17.632C179.499 18.624 179.779 19.768 179.779 21.064ZM176.299 20.104C176.283 19.24 175.971 18.552 175.363 18.04C174.755 17.512 174.011 17.248 173.131 17.248C172.299 17.248 171.595 17.504 171.019 18.016C170.459 18.512 170.115 19.208 169.987 20.104H176.299ZM195.431 14.704L187.199 34.288H183.623L186.503 27.664L181.175 14.704H184.943L188.375 23.992L191.855 14.704H195.431Z" fill="white"/>
<path d="M34.1422 5.85781C30.3647 2.08031 25.3422 0 20 0C14.6578 0 9.63531 2.08031 5.85781 5.85781C2.08031 9.63531 0 14.6578 0 20C0 25.3422 2.08039 30.3646 5.85781 34.1422C9.63523 37.9198 14.6578 40 20 40C25.3422 40 30.3647 37.9197 34.1422 34.1422C37.9197 30.3647 40 25.3422 40 20C40 14.6578 37.9196 9.63539 34.1422 5.85781Z" fill="#33CC95"/>
<g clip-path="url(#clip0_35212_417)">
<path d="M20.5714 8V33.1429" stroke="white" stroke-width="2" stroke-linecap="round" stroke-linejoin="round"/>
<path d="M26.2857 12.5714H17.7143C16.6534 12.5714 15.636 12.9929 14.8859 13.743C14.1357 14.4931 13.7143 15.5106 13.7143 16.5714C13.7143 17.6323 14.1357 18.6497 14.8859 19.3999C15.636 20.15 16.6534 20.5714 17.7143 20.5714H23.4286C24.4894 20.5714 25.5069 20.9929 26.257 21.743C27.0072 22.4932 27.4286 23.5106 27.4286 24.5714C27.4286 25.6323 27.0072 26.6497 26.257 27.3999C25.5069 28.15 24.4894 28.5714 23.4286 28.5714H13.7143" stroke="white" stroke-width="2" stroke-linecap="round" stroke-linejoin="round"/>
</g>
<defs>
<clipPath id="clip0_35212_417">
<rect width="27.4286" height="27.4286" fill="white" transform="translate(6.85715 6.85714)"/>
</clipPath>
</defs>
</svg>
